<?xml version="1.0" standalone="no"?><!DOCTYPE svg PUBLIC "-//W3C//DTD SVG 1.1//EN" "http://www.w3.org/Graphics/SVG/1.1/DTD/svg11.dtd"><svg t="1496307839657" class="icon" style="" viewBox="0 0 1024 1024" version="1.1" xmlns="http://www.w3.org/2000/svg" p-id="969" xmlns:xlink="http://www.w3.org/1999/xlink" width="200" height="200"><defs><style type="text/css"></style></defs><path d="M216.535 354.755c0-3.113 1.445-6.031 3.901-7.905l244.767-188.192c1.802-1.382 3.922-2.058 6.083-2.058 2.12 0 4.219 0.655 6.021 1.998 3.584 2.703 4.915 7.465 3.256 11.663l-49.224 124.58v5.284c2.263-0.246 4.516-0.399 6.84-0.4v0.461h103.045c146.821 0 266.24 119.429 266.24 266.24v34.744c0 146.811-119.419 266.24-266.24 266.24h-266.025v-122.88h266.025c79.063 0 143.36-64.307 143.36-143.36v-34.744c0-79.053-64.297-143.36-143.36-143.36h-106.557l45.896 116.192c1.659 4.168 0.317 8.94-3.256 11.643s-8.54 2.683-12.104-0.061l-244.756-188.17c-2.468-1.915-3.912-4.813-3.912-7.916z" p-id="970" fill="#ffffff"></path></svg>